#!OML:ASF X:\für Bonn\!DataBase\2005_08_12_Daniel\c3d\Daniel.ASF
:FULLY-SPECIFIED
:DEGREES
140
root 2.49088 17.64 17.65 -4.33908 21.2637 0.672776
lowerback 6.49231 4.72234 3.78336
upperback 0.821876 6.45852 -8.01071
thorax -1.4055 3.28388 -11.1075
lowerneck 2.41605 -8.59694 -4.92948
upperneck 11.1775 -12.0089 5.69024
head 3.9972 -5.9554 2.38151
rclavicle -7.67309e-014 -2.06736e-014
rhumerus 62.9997 -29.7435 -82.7254
rradius 9.70344
rwrist 55.7251
rhand 5.09572 8.81006
rfingers 7.12502
rthumb 30.4613 -18.6927
lclavicle -7.67309e-014 -2.06736e-014
lhumerus -32.1616 35.5271 64.0459
lradius 16.595
lwrist -39.9453
lhand -10.0313 -8.09994
lfingers 7.12502
lthumb 15.9535 21.2631
rfemur 11.83 13.9978 22.9645
rtibia 12.7285
rfoot -30.4924 -30.9388
rtoes -9.02008
lfemur -1.52549 -19.8254 -18.9277
ltibia 27.2126
lfoot -20.7178 4.10655
ltoes -15.7108
141
root 2.48826 17.6402 17.6519 -4.31132 21.3457 0.700746
lowerback 6.51614 4.73425 3.78449
upperback 0.808385 6.47424 -8.03051
thorax -1.42698 3.29085 -11.1346
lowerneck 2.49815 -8.61934 -4.95835
upperneck 11.1171 -12.0428 5.7345
head 3.9685 -5.97407 2.40458
rclavicle 1.33186e-013 -9.54166e-014
rhumerus 63.1105 -29.6305 -82.8564
rradius 9.53339
rwrist 56.1661
rhand 5.39588 8.55512
rfingers 7.12502
rthumb 30.7475 -18.8942
lclavicle 1.33186e-013 -9.54166e-014
lhumerus -32.1764 35.6096 63.9608
lradius 16.571
lwrist -39.9871
lhand -10.032 -8.06763
lfingers 7.12502
lthumb 15.9529 21.2954
rfemur 11.849 13.995 22.9618
rtibia 12.7001
rfoot -30.5295 -31.0059
rtoes -9.0285
lfemur -1.56433 -19.8239 -18.9266
ltibia 27.2139
lfoot -20.707 4.02348
ltoes -15.7084
142
root 2.48668 17.6405 17.6531 -4.29354 21.445 0.703352
lowerback 6.54574 4.72564 3.80443
upperback 0.809013 6.46428 -8.03063
thorax -1.44272 3.28518 -11.1496
lowerneck 2.48314 -8.62517 -4.9961
upperneck 11.0991 -12.0516 5.75864
head 3.97055 -5.97912 2.4184
rclavicle -2.00773e-014 -1.90833e-014
rhumerus 63.2115 -29.4975 -82.9844
rradius 9.42764
rwrist 56.6561
rhand 5.6494 8.3917
rfingers 7.12502
rthumb 30.9892 -19.0118
lclavicle -2.00773e-014 -1.90833e-014
lhumerus -32.1862 35.6326 63.9162
lradius 16.5913
lwrist -39.8779
lhand -9.97633 -8.05724
lfingers 7.12502
lthumb 16.0064 21.3015
rfemur 11.8678 13.9709 22.9746
rtibia 12.6629
rfoot -30.5766 -31.0671
rtoes -9.00126
lfemur -1.60348 -19.9061 -18.9213
ltibia 27.217
lfoot -20.6932 4.00593
ltoes -15.7089
143
root 2.48409 17.6406 17.6546 -4.27979 21.5221 0.715916
lowerback 6.57202 4.72659 3.80871
upperback 0.807992 6.46596 -8.02667
thorax -1.45808 3.28531 -11.1508
lowerneck 2.54623 -8.64058 -5.0601
upperneck 11.0469 -12.0742 5.78734
head 3.94912 -5.99369 2.44179
rclavicle 2.49475e-014 -1.59028e-015
rhumerus 63.3439 -29.3766 -83.0886
rradius 9.24669
rwrist 57.1642
rhand 5.80732 8.2426
rfingers 7.12502
rthumb 31.1397 -19.1322
lclavicle 2.49475e-014 -1.59028e-015
lhumerus -32.2268 35.8155 63.8208
lradius 16.5772
lwrist -40.018
lhand -9.95751 -8.12084
lfingers 7.12502
lthumb 16.0246 21.2365
rfemur 11.901 14.0182 23.007
rtibia 12.6294
rfoot -30.6611 -31.1701
rtoes -8.95782
lfemur -1.63504 -19.8978 -18.9045
ltibia 27.2166
lfoot -20.6804 3.91838
ltoes -15.7092
144
root 2.48322 17.6409 17.6559 -4.26382 21.5968 0.717518
lowerback 6.58908 4.7283 3.84715
upperback 0.814225 6.47168 -8.0268
thorax -1.4554 3.28866 -11.1753
lowerneck 2.55939 -8.64856 -5.11728
upperneck 11.011 -12.0871 5.82434
head 3.94245 -6.00182 2.46472
rclavicle -9.54166e-015 -8.11041e-014
rhumerus 63.4625 -29.2425 -83.2145
rradius 9.12135
rwrist 57.6476
rhand 5.87818 8.05248
rfingers 7.12502
rthumb 31.2072 -19.3093
lclavicle -9.54166e-015 -8.11041e-014
lhumerus -32.2245 35.8685 63.7845
lradius 16.6005
lwrist -39.9711
lhand -9.83536 -8.19601
lfingers 7.12502
lthumb 16.1422 21.1518
rfemur 11.9194 13.9962 23.0151
rtibia 12.5912
rfoot -30.6692 -31.2195
rtoes -8.82931
lfemur -1.67063 -19.9175 -18.8898
ltibia 27.2186
lfoot -20.6684 3.86363
ltoes -15.7102
145
root 2.48062 17.6412 17.6569 -4.25873 21.661 0.691891
lowerback 6.62839 4.73363 3.90753
upperback 0.792058 6.4825 -8.03864
thorax -1.48991 3.29197 -11.2307
lowerneck 2.6711 -8.66541 -5.12107
upperneck 10.9374 -12.1142 5.87113
head 3.90137 -6.01674 2.4863
rclavicle -1.42131e-014 -2.22639e-014
rhumerus 63.5265 -29.1384 -83.3404
rradius 8.9919
rwrist 58.101
rhand 5.88129 7.85302
rfingers 7.12502
rthumb 31.2102 -19.5082
lclavicle -1.42131e-014 -2.22639e-014
lhumerus -32.2105 35.8015 63.7477
lradius 16.5913
lwrist -39.8595
lhand -9.76634 -8.26796
lfingers 7.12502
lthumb 16.2087 21.0744
rfemur 11.9404 14.0707 23.0903
rtibia 12.5643
rfoot -30.7422 -31.3429
rtoes -8.81747
lfemur -1.70801 -19.9075 -18.8328
ltibia 27.2164
lfoot -20.6547 3.78166
ltoes -15.7116
146
root 2.47915 17.6415 17.6585 -4.24387 21.7344 0.706422
lowerback 6.63825 4.72463 3.90723
upperback 0.801376 6.47093 -8.03035
thorax -1.48922 3.2864 -11.2213
lowerneck 2.71256 -8.66152 -5.15825
upperneck 10.8721 -12.109 5.89129
head 3.87461 -6.01645 2.50268
rclavicle -9.64106e-015 7.79236e-014
rhumerus 63.6472 -28.9849 -83.4605
rradius 8.90436
rwrist 58.5713
rhand 5.95869 7.75211
rfingers 7.12502
rthumb 31.284 -19.5948
lclavicle -9.64106e-015 7.79236e-014
lhumerus -32.1985 35.8691 63.7128
lradius 16.582
lwrist -39.8287
lhand -9.69006 -8.33868
lfingers 7.12502
lthumb 16.2821 20.9977
rfemur 11.9607 14.0451 23.0921
rtibia 12.533
rfoot -30.753 -31.4024
rtoes -8.84669
lfemur -1.73488 -19.9128 -18.8277
ltibia 27.2141
lfoot -20.6307 3.71404
ltoes -15.7166
147
root 2.47735 17.642 17.6591 -4.21804 21.7849 0.732726
lowerback 6.68005 4.72952 3.90087
upperback 0.788195 6.47644 -8.0253
thorax -1.52654 3.28695 -11.2179
lowerneck 2.71374 -8.67454 -5.25948
upperneck 10.8716 -12.1295 5.92286
head 3.88654 -6.02968 2.52997
rclavicle -3.70733e-014 -1.74931e-014
rhumerus 63.7261 -28.8725 -83.5383
rradius 8.78422
rwrist 59.015
rhand 5.94498 7.63222
rfingers 7.12502
rthumb 31.2709 -19.7173
lclavicle -3.70733e-014 -1.74931e-014
lhumerus -32.2097 35.9064 63.7006
lradius 16.5878
lwrist -39.7232
lhand -9.65944 -8.39265
lfingers 7.12502
lthumb 16.3116 20.9413
rfemur 11.9701 14.0512 23.0812
rtibia 12.5024
rfoot -30.7831 -31.449
rtoes -8.82515
lfemur -1.76774 -19.9056 -18.8314
ltibia 27.2099
lfoot -20.6164 3.65719
ltoes -15.7174
